<?xml version="1.0" encoding="utf-8"?>
<!-- Generator: Adobe Illustrator 27.5.0, SVG Export Plug-In . SVG Version: 6.00 Build 0)  -->
<svg version="1.1" xmlns="http://www.w3.org/2000/svg" xmlns:xlink="http://www.w3.org/1999/xlink" x="0px" y="0px"
	 viewBox="0 0 500 500" style="enable-background:new 0 0 500 500;" xml:space="preserve">
<g id="BACKGROUND">
	<rect style="fill:#FFFFFF;" width="500" height="500"/>
</g>
<g id="OBJECTS">
	<g>
		<g>
			<path style="fill:#F3D077;" d="M268.828,82.994c6.762,2.127,5.014-1.899,0.684-5.622
				C265.181,73.649,268.828,82.994,268.828,82.994z"/>
			<path style="fill:#E5952A;" d="M268.6,62.708c-7.622-3.49-16.411,12.46-8.813,22.185c7.598,9.725,13.068,9.117,13.068,9.117
				s1.216,4.255,7.597,3.647c6.382-0.608,8.965-1.672,6.078-2.431c-2.887-0.76-11.092-2.127-11.092-2.127s7.598-2.279,8.965-4.71
				c1.367-2.431,0.76-3.495-2.887-1.975c-3.647,1.52-6.078,1.368-6.838,2.431c-0.76,1.064-1.216,2.735-1.216,2.735
				s-2.431-5.622-3.039-13.372S271.187,63.893,268.6,62.708z"/>
			<path style="fill:#F3D077;" d="M286.531,95.226c-0.722-0.19-1.776-0.418-2.951-0.653c-0.294-0.059-0.595-0.118-0.901-0.177
				c-3.362-0.651-7.241-1.297-7.241-1.297s1.454-0.436,3.205-1.131c0.5-0.198,1.024-0.418,1.546-0.654
				c1.825-0.827,3.616-1.862,4.214-2.926c0.94-1.672,0.947-2.697-0.326-2.68c-0.232,0.003-0.506,0.04-0.823,0.115
				c-0.477,0.111-1.054,0.305-1.738,0.59c-0.003,0.001-0.005,0.002-0.008,0.003c-0.364,0.151-0.708,0.278-1.044,0.396
				c-3.056,1.091-5.102,1.075-5.785,2.032c-0.76,1.064-1.216,2.735-1.216,2.735s-0.05-0.117-0.131-0.322
				c-0.469,1.066-0.997,2.054-2.026,2.584c0,0,0,0,0.001,0c0.245,0.056,0.462,0.094,0.652,0.12c0.015,0.002,0.026,0.003,0.039,0.005
				c0.166,0.022,0.309,0.035,0.427,0.042c0.024,0.001,0.046,0.003,0.068,0.003c0.099,0.004,0.183,0.005,0.241,0.004
				c0.01,0,0.025,0,0.033-0.001c0.05-0.002,0.088-0.005,0.088-0.005l0,0l0,0c0,0,1.068,3.739,6.46,3.706
				c0.359-0.002,0.738-0.021,1.137-0.059c3.989-0.38,6.494-0.938,7.106-1.488C287.927,95.838,287.613,95.511,286.531,95.226z"/>
			<path style="fill:#230D11;" d="M268.031,69.964c0,0.608-0.629,1.102-1.405,1.102c-0.776,0-1.406-0.493-1.406-1.102
				c0-0.608,0.629-1.102,1.406-1.102C267.401,68.862,268.031,69.356,268.031,69.964z"/>
			<path style="fill:#F3D077;" d="M260.395,77.752c-0.38,3.495,1.595,8.813,3.799,8.509
				C266.397,85.957,260.395,77.752,260.395,77.752z"/>
		</g>
		<g>
			<path style="fill:#E5952A;" d="M385.637,171.265c-0.81,15.6,7.192,34.847,20.564,30.188c13.372-4.66-18.031-30.39-18.031-30.39
				s-1.317-12.561-0.203-15.6c1.114-3.039-6.686,3.647-4.052,10.941c0,0-10.839-5.876-11.346-3.748
				C372.063,164.781,385.637,171.265,385.637,171.265z"/>
			<path style="opacity:0.5;fill:#E5952A;" d="M386.422,182.182c2.34,12.219,9.458,22.867,19.779,19.27
				c3.768-1.313,3.98-4.299,2.342-7.912C399.289,193.126,391.389,188.97,386.422,182.182z"/>
			<path style="fill:#F3D077;" d="M385.052,170.981c0.891-0.115,1.792-0.175,2.699-0.175c0.134,0,0.262,0.015,0.395,0.016
				c-0.172-1.724-1.204-12.566-0.179-15.361c1.114-3.039-6.686,3.647-4.052,10.94c0,0-10.839-5.875-11.345-3.748
				C372.126,164.515,382.457,169.709,385.052,170.981z"/>
			<path style="fill:#230D11;" d="M404.276,191.93c-1.808-2.503-4.559-0.608-3.546,0.912
				C401.744,194.361,405.593,193.753,404.276,191.93z"/>
			<path style="fill:#F3D077;" d="M394.855,185.751c-1.114-2.836-2.836-7.539-4.254-7.315c-1.418,0.224,0,4.782,0,4.782
				s-4.964-3.951-5.977-2.431s7.192,7.091,7.192,7.091C391.9,186.311,392.657,185.365,394.855,185.751z"/>
			<path style="fill:#F3D077;" d="M403.902,186.517c-0.335-9.782-4.894-10.795-5.198-9.377c-0.304,1.418-2.124-2.913-3.85-2.33
				c-1.726,0.583,1.418,5.826,1.418,5.826L403.902,186.517z"/>
		</g>
		<g>
			<g>
				<path style="fill:#F3D077;" d="M118.777,167.25c13.22-1.975,18.842-8.965,16.866-10.181c-1.975-1.216-13.979,3.343-13.979,3.343
					s-3.191-12.612-5.926-10.637c-2.735,1.975,0,15.651,0,15.651L118.777,167.25z"/>
				<path style="fill:#F3D077;" d="M102.822,174.24c-0.152-8.813-5.622-6.078-8.053,0.76c-2.431,6.838-1.975,16.411,0,16.715
					C96.744,192.018,102.822,174.24,102.822,174.24z"/>
				<path style="fill:#E5952A;" d="M118.777,164.211c-3.547-1.733-13.524,2.431-21.881,17.474
					c-8.357,15.043-7.142,23.248-5.622,24.008c1.52,0.76,9.725-1.975,19.146-7.901c9.421-5.926,10.833-19.906,10.484-25.376
					C120.556,166.946,118.777,164.211,118.777,164.211z"/>
				<path style="opacity:0.65;fill:#E5952A;" d="M93.668,194.047c-0.746,0.103-1.483,0.157-2.215,0.184
					c-2.071,7.059-1.201,10.952-0.179,11.463c1.519,0.76,9.725-1.975,19.146-7.901c7.055-4.438,9.618-13.392,10.314-19.906
					C114.661,186.586,105.52,192.408,93.668,194.047z"/>
				<path style="fill:none;stroke:#F3D077;stroke-width:0.5;stroke-linecap:round;stroke-linejoin:round;stroke-miterlimit:10;" d="
					M97.967,189.739c7.286,2.583,7.599,8.509,7.599,8.509"/>
				<path style="fill:#F3D077;" d="M111.18,187.156c5.774-2.279,10.029-9.573,7.75-10.181c-2.279-0.608-4.407,1.52-4.407,1.52
					s3.647-8.661,0-8.965c-3.647-0.304-6.078,15.301-6.078,15.301C110.482,184.057,111.464,184.736,111.18,187.156z"/>
			</g>
			<path style="fill:#230D11;" d="M94.009,194.753c-0.456,1.823,3.191,2.127,3.039,0.76
				C96.896,194.145,94.465,192.93,94.009,194.753z"/>
		</g>
	</g>
	<g>
		<path style="fill:#F3929E;" d="M403.058,379.551c4.48-12.053,14.572-17.956,20.974-17.62c6.402,0.337,8.548-6.446,9.111-14.683
			s11.63-12.66,2.147-21.079c-9.483-8.419-20.685-8.247-27.533-0.657c-6.848,7.591-19.682,15.436-19.621,5.091
			c0.061-10.344,11.149-19.028,4.046-26.331c-7.103-7.303-5.848-20.74,10.226-29.026c16.074-8.286,16.114-21.672,13.589-30.994
			c-2.525-9.322-2.774-18.437-17.52-20.245c-14.746-1.808-23.06-4.192-23.413-19.69c-0.353-15.498-15.776-27.717-25.187-27.269
			c-9.41,0.449-8.926,4.685-11.718,10.583c-2.791,5.899-7.004,6.99-6.429,13.353c0.574,6.363,2.389,13.282,8.505,21.235
			c6.117,7.953,5.546,23.186-4.357,26.344c-9.904,3.158-29.325,1.853-30.942-17.14c-1.617-18.993-10.056-36.277-25.195-29.855
			c-15.139,6.422-15.777,10.504-18.449,24.001c-2.672,13.497-9.743,9.336-19.641,15.028s-23.103,9.903-29.553,1.254
			s-4.313-15.634-19.629-13.362c-15.315,2.272-22.222-7.574-20.696-19.4c1.526-11.826-14.847-24.921-30.421-19.19
			c-15.574,5.73-18.314,17.608-17.213,24.456c1.102,6.848,3.456,23.376-3.524,26.511c-6.98,3.135-27.1,1.555-30.78,13.068
			c-3.68,11.512,4.054,21.729-15.886,20.141c-19.94-1.587-28.616,13.787-21.012,30.498c7.604,16.711,15.477,11.105,20.833,22.639
			c5.356,11.534,15.169,15.579,23.182,21.728c8.013,6.149,9.366,20.286-6.075,18.914s-16.525-7.816-26.828-2.106
			c-10.302,5.71-13.482,16.795-4.879,28.394c8.604,11.599,14.728,12.556,30.784,8.63c16.056-3.926,24.19-1.432,18.132,7.748
			c-6.058,9.179,0.771,26.735,12.761,22.576c11.991-4.159,14.412-13.995,20.674-9.8c6.262,4.195,13.23,5.928,15.649,15.153
			c2.419,9.225,9.861,12.56,21.24,3.56c11.38-9,25.36-14.054,36.445-10.875c11.085,3.18,22.322-12.607,45.28-6.281
			c22.958,6.326,40.42,9.235,53.658-1.365c13.238-10.6,30.12-21.354,53.085-17.766C389.846,409.312,403.058,379.551,403.058,379.551
			z"/>
		<g>
			<path style="fill:none;stroke:#FFFFFF;stroke-width:0.5;stroke-linecap:round;stroke-linejoin:round;stroke-miterlimit:10;" d="
				M127.782,211.769c0.296,6.983,2.731,14.18,14.786,11.539c12.055-2.641,13.54,3.684,7.99,9.09c-5.55,5.407,2.442,0.201,9.23,9.646
				s8.577,15.757,2.685,20.266c-5.892,4.509-13.417-7.947-19.986-12.231c-6.569-4.284-14.683-0.29-21.235,5.768
				c-6.552,6.057-23.759,1.526-19.977-5.89"/>
			<path style="fill:none;stroke:#FFFFFF;stroke-width:0.5;stroke-linecap:round;stroke-linejoin:round;stroke-miterlimit:10;" d="
				M67.269,276.693c12.274,2.521,18.126,11.398,16.387,20.597c-1.739,9.199-6.586,24.005,3.815,25.389
				c10.401,1.384,32.295-5.933,40.311,3.765s5.101,19.859-6.799,26.143s-17.412,12.602-5.073,16.641
				c12.338,4.039,9.979,12.96,7.162,18.251c-2.817,5.29,2.357,5.375,2.641,12.055c0.283,6.68,6.9,11.266,13.987,3.057
				c7.087-8.209,8.784-4.063,17.615,3.339c8.831,7.402,11.234-0.477,11.234-0.477"/>
			<path style="fill:none;stroke:#FFFFFF;stroke-width:0.5;stroke-linecap:round;stroke-linejoin:round;stroke-miterlimit:10;" d="
				M391.237,227.053c-18.825,0.799-22.735,16.173-14.189,24.023c8.546,7.85,17.957,10.797,9.823,18.138
				c-8.134,7.341-17.669,12.004-10.41,25.384s8.688,11.19,1.483,20.621c-7.204,9.431-3.807,17.804,2.039,19.381"/>
			<g>
				<g>
					
						<line style="fill:none;stroke:#FFFFFF;stroke-width:0.5;stroke-linecap:round;stroke-linejoin:round;stroke-miterlimit:10;" x1="398.61" y1="237.34" x2="400.072" y2="252.603"/>
					
						<line style="fill:none;stroke:#FFFFFF;stroke-width:0.5;stroke-linecap:round;stroke-linejoin:round;stroke-miterlimit:10;" x1="392.513" y1="247.209" x2="406.24" y2="243.206"/>
					
						<line style="fill:none;stroke:#FFFFFF;stroke-width:0.5;stroke-linecap:round;stroke-linejoin:round;stroke-miterlimit:10;" x1="403.218" y1="238.448" x2="395.592" y2="250.662"/>
					
						<path style="fill:none;stroke:#FFFFFF;stroke-width:0.5;stroke-linecap:round;stroke-linejoin:round;stroke-miterlimit:10;" d="
						M393.944,240.633c7.641,7.331,11.687,8.626,11.687,8.626"/>
				</g>
				<g>
					
						<line style="fill:none;stroke:#FFFFFF;stroke-width:0.5;stroke-linecap:round;stroke-linejoin:round;stroke-miterlimit:10;" x1="203.678" y1="288.546" x2="205.14" y2="303.809"/>
					
						<line style="fill:none;stroke:#FFFFFF;stroke-width:0.5;stroke-linecap:round;stroke-linejoin:round;stroke-miterlimit:10;" x1="197.581" y1="298.415" x2="211.308" y2="294.412"/>
					
						<line style="fill:none;stroke:#FFFFFF;stroke-width:0.5;stroke-linecap:round;stroke-linejoin:round;stroke-miterlimit:10;" x1="208.286" y1="289.654" x2="200.66" y2="301.868"/>
					
						<path style="fill:none;stroke:#FFFFFF;stroke-width:0.5;stroke-linecap:round;stroke-linejoin:round;stroke-miterlimit:10;" d="
						M199.012,291.839c7.641,7.331,11.687,8.626,11.687,8.626"/>
				</g>
				<g>
					
						<line style="fill:none;stroke:#FFFFFF;stroke-width:0.5;stroke-linecap:round;stroke-linejoin:round;stroke-miterlimit:10;" x1="133.25" y1="260.817" x2="134.712" y2="276.08"/>
					
						<line style="fill:none;stroke:#FFFFFF;stroke-width:0.5;stroke-linecap:round;stroke-linejoin:round;stroke-miterlimit:10;" x1="127.153" y1="270.686" x2="140.88" y2="266.683"/>
					
						<line style="fill:none;stroke:#FFFFFF;stroke-width:0.5;stroke-linecap:round;stroke-linejoin:round;stroke-miterlimit:10;" x1="137.858" y1="261.925" x2="130.231" y2="274.139"/>
					
						<path style="fill:none;stroke:#FFFFFF;stroke-width:0.5;stroke-linecap:round;stroke-linejoin:round;stroke-miterlimit:10;" d="
						M128.584,264.11c7.641,7.331,11.687,8.626,11.687,8.626"/>
				</g>
				<g>
					
						<path style="fill:none;stroke:#FFFFFF;stroke-width:0.5;stroke-linecap:round;stroke-linejoin:round;stroke-miterlimit:10;" d="
						M68.139,287.212c-0.883,6.064-8.18,14.518-8.18,14.518"/>
					
						<path style="fill:none;stroke:#FFFFFF;stroke-width:0.5;stroke-linecap:round;stroke-linejoin:round;stroke-miterlimit:10;" d="
						M58.284,291.051c5.979,4.633,14.05,6.734,14.05,6.734"/>
					
						<path style="fill:none;stroke:#FFFFFF;stroke-width:0.5;stroke-linecap:round;stroke-linejoin:round;stroke-miterlimit:10;" d="
						M62.936,287.433c0.56,5.514,5.153,13.953,5.153,13.953"/>
					
						<path style="fill:none;stroke:#FFFFFF;stroke-width:0.5;stroke-linecap:round;stroke-linejoin:round;stroke-miterlimit:10;" d="
						M56.811,296.652c9.105-0.386,14.245-4.677,14.245-4.677"/>
				</g>
				<g>
					
						<path style="fill:none;stroke:#FFFFFF;stroke-width:0.5;stroke-linecap:round;stroke-linejoin:round;stroke-miterlimit:10;" d="
						M416.394,331.509c2.43,6.087,1.131,13.852,1.131,13.852"/>
					
						<path style="fill:none;stroke:#FFFFFF;stroke-width:0.5;stroke-linecap:round;stroke-linejoin:round;stroke-miterlimit:10;" d="
						M410.293,338.718c8.482,0.292,14.627-3.336,14.627-3.336"/>
					
						<path style="fill:none;stroke:#FFFFFF;stroke-width:0.5;stroke-linecap:round;stroke-linejoin:round;stroke-miterlimit:10;" d="
						M421.489,331.293c-2.033,5.841-8.609,12.093-8.609,12.093"/>
					
						<path style="fill:none;stroke:#FFFFFF;stroke-width:0.5;stroke-linecap:round;stroke-linejoin:round;stroke-miterlimit:10;" d="
						M412.461,333.522c3.305,3.66,11.528,8.089,11.528,8.089"/>
				</g>
				<g>
					
						<path style="fill:none;stroke:#FFFFFF;stroke-width:0.5;stroke-linecap:round;stroke-linejoin:round;stroke-miterlimit:10;" d="
						M132.789,357.443c2.43,6.087,1.131,13.852,1.131,13.852"/>
					
						<path style="fill:none;stroke:#FFFFFF;stroke-width:0.5;stroke-linecap:round;stroke-linejoin:round;stroke-miterlimit:10;" d="
						M126.688,364.652c8.483,0.292,14.627-3.336,14.627-3.336"/>
					
						<path style="fill:none;stroke:#FFFFFF;stroke-width:0.5;stroke-linecap:round;stroke-linejoin:round;stroke-miterlimit:10;" d="
						M137.884,357.227c-2.033,5.841-8.609,12.093-8.609,12.093"/>
					
						<path style="fill:none;stroke:#FFFFFF;stroke-width:0.5;stroke-linecap:round;stroke-linejoin:round;stroke-miterlimit:10;" d="
						M128.857,359.456c3.305,3.661,11.528,8.089,11.528,8.089"/>
				</g>
				<g>
					
						<path style="fill:none;stroke:#FFFFFF;stroke-width:0.5;stroke-linecap:round;stroke-linejoin:round;stroke-miterlimit:10;" d="
						M116.157,380.344c-5.261,3.908-13.1,4.64-13.1,4.64"/>
					
						<path style="fill:none;stroke:#FFFFFF;stroke-width:0.5;stroke-linecap:round;stroke-linejoin:round;stroke-miterlimit:10;" d="
						M107.626,376.292c1.89,8.274,6.97,13.285,6.97,13.285"/>
					
						<path style="fill:none;stroke:#FFFFFF;stroke-width:0.5;stroke-linecap:round;stroke-linejoin:round;stroke-miterlimit:10;" d="
						M117.671,385.213c-6.167-0.469-13.895-5.224-13.895-5.224"/>
					
						<path style="fill:none;stroke:#FFFFFF;stroke-width:0.5;stroke-linecap:round;stroke-linejoin:round;stroke-miterlimit:10;" d="
						M113.204,377.058c-2.692,4.132-4.867,13.215-4.867,13.215"/>
				</g>
				<g>
					
						<path style="fill:none;stroke:#FFFFFF;stroke-width:0.5;stroke-linecap:round;stroke-linejoin:round;stroke-miterlimit:10;" d="
						M175.267,422.522c-5.261,3.908-13.1,4.64-13.1,4.64"/>
					
						<path style="fill:none;stroke:#FFFFFF;stroke-width:0.5;stroke-linecap:round;stroke-linejoin:round;stroke-miterlimit:10;" d="
						M166.736,418.47c1.89,8.274,6.97,13.285,6.97,13.285"/>
					
						<path style="fill:none;stroke:#FFFFFF;stroke-width:0.5;stroke-linecap:round;stroke-linejoin:round;stroke-miterlimit:10;" d="
						M176.78,427.391c-6.167-0.469-13.894-5.225-13.894-5.225"/>
					
						<path style="fill:none;stroke:#FFFFFF;stroke-width:0.5;stroke-linecap:round;stroke-linejoin:round;stroke-miterlimit:10;" d="
						M172.314,419.236c-2.692,4.132-4.867,13.215-4.867,13.215"/>
				</g>
				<g>
					
						<path style="fill:none;stroke:#FFFFFF;stroke-width:0.5;stroke-linecap:round;stroke-linejoin:round;stroke-miterlimit:10;" d="
						M350.621,189.06c-2.391,10.201,1.347,18.946,1.347,18.946"/>
					
						<path style="fill:none;stroke:#FFFFFF;stroke-width:0.5;stroke-linecap:round;stroke-linejoin:round;stroke-miterlimit:10;" d="
						M340.271,198.512c9.654,2.305,20.03-1.393,20.03-1.393"/>
					
						<path style="fill:none;stroke:#FFFFFF;stroke-width:0.5;stroke-linecap:round;stroke-linejoin:round;stroke-miterlimit:10;" d="
						M357.551,191.155c-5.524,5.447-9.568,9.962-11.99,14.3"/>
					
						<path style="fill:none;stroke:#FFFFFF;stroke-width:0.5;stroke-linecap:round;stroke-linejoin:round;stroke-miterlimit:10;" d="
						M344.11,191.725c2.9,6.935,14.892,13.159,14.892,13.159"/>
				</g>
				<g>
					
						<path style="fill:none;stroke:#FFFFFF;stroke-width:0.5;stroke-linecap:round;stroke-linejoin:round;stroke-miterlimit:10;" d="
						M354.923,261.021c-2.391,10.201,1.347,18.947,1.347,18.947"/>
					
						<path style="fill:none;stroke:#FFFFFF;stroke-width:0.5;stroke-linecap:round;stroke-linejoin:round;stroke-miterlimit:10;" d="
						M344.574,270.473c9.654,2.305,20.03-1.393,20.03-1.393"/>
					
						<path style="fill:none;stroke:#FFFFFF;stroke-width:0.5;stroke-linecap:round;stroke-linejoin:round;stroke-miterlimit:10;" d="
						M361.853,263.116c-5.524,5.447-9.568,9.962-11.99,14.3"/>
					
						<path style="fill:none;stroke:#FFFFFF;stroke-width:0.5;stroke-linecap:round;stroke-linejoin:round;stroke-miterlimit:10;" d="
						M348.412,263.686c2.9,6.935,14.892,13.159,14.892,13.159"/>
				</g>
				<g>
					
						<path style="fill:none;stroke:#FFFFFF;stroke-width:0.5;stroke-linecap:round;stroke-linejoin:round;stroke-miterlimit:10;" d="
						M142.041,200.191c1.556,8.513,6.682,14.159,6.682,14.159"/>
					
						<path style="fill:none;stroke:#FFFFFF;stroke-width:0.5;stroke-linecap:round;stroke-linejoin:round;stroke-miterlimit:10;" d="
						M137.213,211.798c4.415-3.445,14.272-6.578,14.272-6.578"/>
					
						<path style="fill:none;stroke:#FFFFFF;stroke-width:0.5;stroke-linecap:round;stroke-linejoin:round;stroke-miterlimit:10;" d="
						M147.498,200.828c-2.747,4.352-5.095,10.449-4.845,13.779"/>
					
						<path style="fill:none;stroke:#FFFFFF;stroke-width:0.5;stroke-linecap:round;stroke-linejoin:round;stroke-miterlimit:10;" d="
						M136.973,206.162c6.107,0.61,13.63,3.874,13.63,3.874"/>
				</g>
				<g>
					
						<path style="fill:none;stroke:#FFFFFF;stroke-width:0.5;stroke-linecap:round;stroke-linejoin:round;stroke-miterlimit:10;" d="
						M69.511,377.12c4.469,8.063,3.808,18.082,3.808,18.082"/>
					
						<path style="fill:none;stroke:#FFFFFF;stroke-width:0.5;stroke-linecap:round;stroke-linejoin:round;stroke-miterlimit:10;" d="
						M61.751,388.743c9.685-4.646,21.17-5.242,21.17-5.242"/>
					
						<path style="fill:none;stroke:#FFFFFF;stroke-width:0.5;stroke-linecap:round;stroke-linejoin:round;stroke-miterlimit:10;" d="
						M77.424,376.784c-3.467,7.857-11.144,16.327-11.144,16.327"/>
					
						<path style="fill:none;stroke:#FFFFFF;stroke-width:0.5;stroke-linecap:round;stroke-linejoin:round;stroke-miterlimit:10;" d="
						M63.682,380.517c9.229,2.54,16.733,10.475,16.733,10.475"/>
				</g>
			</g>
		</g>
		<path style="opacity:0.48;fill:#F3929E;" d="M178.413,442.01c11.38-9,25.36-14.054,36.445-10.875
			c11.085,3.18,22.322-12.607,45.28-6.281c22.959,6.326,40.42,9.235,53.658-1.364c13.238-10.6,30.12-21.354,53.085-17.766
			c22.965,3.588,36.177-26.173,36.177-26.173c4.481-12.053,14.572-17.956,20.974-17.62c6.402,0.337,8.547-6.446,9.11-14.683
			c-10.415,12.609-15.618-1.887-29.83,1.06c-14.213,2.948-31.284,10.456-32.133-8.518c-0.848-18.974,15.065-17.725,18.324-30.857
			c3.259-13.131-9.487-8.093-21.088-15.162c-11.6-7.069-22.557,3.645-26.584,23.432c-4.027,19.787-20.393-12.262-41.172-11.238
			c-20.778,1.023,5.78,18.269,1.424,33.555c-4.356,15.285-15.827-3.479-30.887-1.85c-15.061,1.629-7.57,28.938-28.202,33.88
			c-20.632,4.941-30.303-7.866-25.445-24.57c4.858-16.704-2.946-26.96-14.171-7.807c-11.225,19.152-28.717-14.821-40.286-9.323
			c-11.569,5.499-4.055,18.578-0.688,28.681c3.367,10.103-10.949,30.009-17.41,25.522c-6.46-4.487-14.233-4.101-21.923,3.424
			c-7.691,7.525-9.59,5.781-24.705,3.219c-15.114-2.562-18.695,18.192-39.194,3.447c8.604,11.599,14.728,12.556,30.784,8.63
			c16.056-3.926,24.19-1.432,18.132,7.748c-6.057,9.179,0.771,26.735,12.761,22.576c11.99-4.159,14.412-13.995,20.674-9.8
			c6.261,4.196,13.229,5.928,15.649,15.153C159.592,447.675,167.033,451.009,178.413,442.01z"/>
		<g style="opacity:0.63;">
			<path style="fill:#F3929E;" d="M363.719,202.186c2.381,8.993,9.139,13.663,15.375,15.096c-2.513-2.801-3.891-6.865-4.03-12.965
				c-0.354-15.498-15.776-27.717-25.187-27.269c-9.41,0.449-8.927,4.685-11.718,10.583c-2.791,5.899-7.003,6.99-6.429,13.353
				c0.575,6.363,2.389,13.282,8.506,21.235c6.116,7.953,5.547,23.186-4.357,26.344c-9.904,3.158-29.325,1.853-30.942-17.14
				s-10.056-36.277-25.195-29.855c-15.139,6.422-15.777,10.504-18.448,24.001c-2.672,13.497-9.743,9.336-19.641,15.028
				c-2.003,1.152-4.143,2.241-6.334,3.177c1.517,0.641,3.164,1.175,4.982,1.585c18.767,4.232,10.945,2.708,35.64,9.401
				c24.694,6.694,22.404,30.071,37.02,26.409c14.616-3.662,11.096-17.747,36.231-28.527c25.134-10.78-6.216-29.339-8.623-47.175
				C338.159,187.632,359.372,185.766,363.719,202.186z"/>
			<path style="fill:#F3929E;" d="M152.989,215.583c6.253-3.561,11.877-9.21,17.894-13.099c-3.655-9.442-16.856-17.246-29.53-12.583
				c-15.574,5.73-18.315,17.608-17.213,24.456c1.102,6.848,3.456,23.376-3.524,26.511c-6.98,3.135-27.1,1.555-30.78,13.068
				c-3.68,11.512,4.054,21.729-15.886,20.141c-10.366-0.825-17.678,2.939-21.251,9.086c7.749-1.198,17.205,3.18,26.495,12.539
				c16.664,16.785,42.128-2.842,37.383-15.065c-4.745-12.223-6.068-33.826,10.353-29.168c16.421,4.658,40.501,9.223,28.613-3.814
				C143.656,234.618,138.339,223.927,152.989,215.583z"/>
			<path style="fill:#F3929E;" d="M407.757,325.512c-4.556,5.049-11.755,10.204-16.051,10.049c9.066,2.605,32.86-7.628,40.874-1.579
				c1.525,1.151,3.336,2.134,5.304,2.977c1.731-3.249,2.237-6.501-2.595-10.791C425.808,317.75,414.605,317.922,407.757,325.512z"/>
			<path style="fill:#F3929E;" d="M389.749,323.265c1.522-3.905,3.684-7.545,4.489-10.936
				C392.407,316.233,390.841,319.971,389.749,323.265z"/>
			<path style="fill:#F3929E;" d="M106.772,353.392c-3.657-2.16-6.844-3.499-9.696-4.351c7.902,6.199,9.164,20.18-6.197,18.814
				c-15.441-1.373-16.525-7.816-26.828-2.106c-2.551,1.414-4.664,3.158-6.271,5.158c6.157,0.115,14.856-0.671,24.781,4.141
				C103.057,384.984,128.848,366.435,106.772,353.392z"/>
			<path style="fill:#F3929E;" d="M388.179,331.615c0.012,0.115,0.025,0.23,0.043,0.34
				C388.208,331.842,388.189,331.734,388.179,331.615z"/>
		</g>
	</g>
	<g>
		<path style="fill:#933642;" d="M410.543,372.079c-4.681-10.535-14.406-17.945-22.915-13.227s-8.452,4.313-12.938,10.796
			c-4.486,6.483-12.185,2.026-16.237,6.078c-4.052,4.052-7.802,6.382-7.802,6.382c-8.811-6.99-3.948-15.195,2.433-19.754
			c6.382-4.559,17.914-10.332,13.515-19.753c-4.398-9.421-10.476-6.078-7.438-15.195c3.039-9.117,13.18-33.125,8.413-39.203
			c-4.767-6.078-8.071,10.637-11.433,12.764c-3.362,2.127-8.794-1.824,0-21.577c8.794-19.754-1.234-17.018-7.313-6.382
			c-6.078,10.637-14.283,10.94-11.548-0.608c2.735-11.548,12.156-27.351,3.647-30.694c-8.509-3.343-10.029,23.112-15.195,13.683
			c-5.167-9.428,1.823-21.888,2.127-32.829c0.304-10.94,0.46-14.42-4.025-12.072c-4.484,2.348-6.916,14.446-9.347,10.524
			c-2.431-3.922,3.039-19.61,3.039-25.138c0,0,17.018-10.086,12.156-15.86c-4.862-5.774-13.706,3.343-15.818-1.216
			c-2.112-4.559,4.27-11.244,5.486-17.322c1.215-6.078-2.096-12.156-5.911-9.421c-3.814,2.735-5.638,9.133-8.069,12.012
			c-1.744-5.468-4.58-6.741-8.51-3.807l-1.216-8.879c0,0,14.891-12.698,10.941-16.648c-3.951-3.951-15.195,6.382-16.715,2.127
			c-1.519-4.255,12.156-14.283,7.598-25.528c-4.559-11.244-13.676-11.244-13.676-2.127c0,9.117-1.463,19.45-10.456,16.107
			c-8.994-3.343-4.452-25.224-10.826-24.616c-6.373,0.608-2.118,17.322-6.981,16.107c-4.862-1.216-4.483-10.214-9.383-19.086
			c-4.9-8.873-8.851-16.353-17.36-14.132c-8.509,2.221-6.99,7.083-3.343,12.553c3.647,5.47,0.304,5.47-6.99,4.862
			c-7.294-0.608-10.637,5.774-4.255,11.548c6.382,5.774,14.891,8.205,20.057,15.195c5.167,6.99,8.205,10.637,3.951,13.068
			c-4.255,2.431-7.598,2.735-6.686,7.294c0.912,4.558,5.47,7.597,10.637,9.725c5.166,2.127,7.597,6.382,2.431,8.813
			c-5.166,2.431-1.519,8.813-1.519,8.813s-7.598,4.617-2.431,12.337c5.166,7.72,14.587,25.447,9.421,24.485
			c-5.167-0.962-14.588-7.106-14.588-7.106s2.127-10.874-3.039-11.178c-5.167-0.304-6.078,15.667-9.421,15.735
			c-3.343,0.068,0.912-13.81-3.647-12.493c-4.559,1.317-10.029,9.163-13.676,8.583c-3.647-0.58-10.94-8.276,0-15.824
			c10.94-7.548,13.371-10.288,11.548-11.653c-1.824-1.365-10.636-1.365-7.902-4.1c2.735-2.735,12.46-4.238,7.902-10.172
			c-4.559-5.934-7.902,4.398-12.764,1.663c-4.862-2.735-6.078-7.598,4.862-14.891c10.941-7.294,12.46-20.361,1.216-15.499
			c-11.244,4.862-19.754,12.156-17.93,2.127c1.824-10.029,11.852-10.333,7.294-15.195c-4.559-4.862-12.764,3.647-12.46-4.559
			c0.304-8.205,2.735-14.587-1.824-11.852c-4.559,2.735-10.637,9.421-9.421,0.304c1.216-9.117,1.52-15.195-3.647-14.891
			c-5.166,0.304-14.891,2.245-8.509-7.691c6.382-9.935,7.901-13.658,1.823-13.62c-6.078,0.038-16.721,9.459-14.438,1.102
			c2.283-8.357,4.684-26.287-0.315-24.768c-4.999,1.52-1.961,10.333-5.304,11.852c-3.342,1.519-3.647-3.343-7.901-14.587
			c-4.255-11.244-8.813-16.107-10.636-11.852c-1.824,4.255,5.47,10.333,0,12.156c-5.47,1.823-10.297,1.823-7.731,7.901
			c2.565,6.078,11.074,12.612,11.378,17.094c0.304,4.483-7.865-4.634-11.378-3.115c-3.513,1.52-0.241,10.51,5.721,14.22
			c5.961,3.71,14.025,7.053,10.753,10.092c-3.273,3.039-14.635-5.166-17.919-0.912s1.882,13.068,13.431,16.411
			c11.548,3.343,19.743,5.47,16.862,7.598c-2.882,2.127-15.038-3.039-15.038,1.52s0.912,7.294,12.156,7.294
			c11.245,0,19.146,13.372,17.018,14.891c-2.127,1.52-8.819-3.647-11.095-0.304c-2.276,3.343,7.145,7.482,13.223,13.01
			c6.078,5.528,0.51,12.822-7.039,5.832s-13.849-4.313-7.812,3.01c6.038,7.323,24.271,16.505,25.183,21.79
			c0.912,5.286-13.068,1.331-19.449-1.858c-6.382-3.189-12.768,1.125-7.144,9.453c5.624,8.328,15.957,11.93,15.957,16.511
			c0,4.581-3.647,0.19-1.824,6.184c1.824,5.994,6.382,2.595,3.647,8.246c-2.735,5.65,3.039,7.17,5.166,12.336
			c2.127,5.166-4.559,1.216-7.294,3.951c-2.735,2.735,4.559,10.029,12.764,12.46c8.205,2.431,11.852,9.421,5.774,12.156
			c-6.078,2.735-7.902,9.326-0.304,12.109c7.598,2.783,14.588,1.567,14.588,5.822c0,4.255-11.548-0.608-12.156,6.686
			c-0.607,7.294,24.008,8.205,24.008,8.205s-2.431,4.255,7.597,10.029c10.029,5.774,12.764,12.156,9.421,13.979
			c-3.343,1.823-13.676-2.735-15.195,3.343c-1.519,6.078,9.117,8.813,17.322,13.979c8.205,5.166,9.117,8.751,4.255,11.973
			c-1.688,1.118-3.779,2.288-5.789,3.338c-3.371,1.761-4.527,6.082-2.363,9.209c3.643,5.263,5.874,12.389-7.955,13.129
			c-9.079,0.486-14.587-14.249-8.813-19.416c5.774-5.166,7.598-9.117,0.304-10.637c-7.294-1.52-16.411-1.824-11.852-5.774
			c4.558-3.951,10.332-5.774,3.343-8.813c-6.99-3.039-15.499-6.382-9.117-11.548c6.382-5.166,7.901-13.676-1.52-11.852
			c-9.421,1.823-15.018,13.372-18.146,8.509c-3.128-4.862,9.029-15.031,5.382-18.911c-3.647-3.881-10.941-6.148-14.588,0
			c-3.647,6.148-14.29,6.88-9.576-4.882c4.714-11.763,0.357-23.611-7.017-23.611c-7.374,0-4.905,13.368-3.577,21.877
			c1.328,8.509-5.532,8.813-10.307-3.647c-4.775-12.46-10.853-12.049-12.221-6.024c-1.367,6.024-7.36,2.604-10.057-10.904
			c-2.698-13.508-16.838-26.226-21.7-19.236c-4.862,6.99,10.029,19.354,12.156,25.176c2.127,5.822-0.236,5.518,3.833,11.9
			c4.069,6.382-3.529,8.33-7.48,4.469c-3.951-3.861-11.988-13.023-16.327-6.922c-4.338,6.1,4.171,9.139,9.945,14.002
			c5.774,4.862,8.881,1.245,13.861,3.662c4.981,2.416,5.922,8.494-0.931,8.19c-6.853-0.304-19.313,0-21.44,3.039
			c-2.127,3.039-5.47,8.509,5.774,7.294c11.244-1.216,23.713-8.813,26.14-4.255c2.427,4.559-16.719,12.156-13.984,17.93
			c2.735,5.774,13.979-2.145,20.209-6.542c6.23-4.398,14.323-3.182,15.747,1.68c1.424,4.862-19.336,9.725-21.112,11.852
			c-1.776,2.127-1.715,9.596,8.86,7.719c10.575-1.877,12.234-6.503,19.792-7.415c7.559-0.912,9.99,2.673,5.128,7.415
			c-4.862,4.741-1.519,5.045,6.078,2.006c7.598-3.039,19.215-2.431,11.127,3.039c-8.088,5.47-16.902,1.823-18.117,7.597
			c-1.216,5.774,4.896,0.912,13.997,1.52c9.1,0.608,12.157,1.969,6.83,8.126c-5.327,6.157-16.268,10.26-16.876,18.237
			c-0.608,7.977,0,12.062,7.901,6.069c7.902-5.993,13.984-10.707,15.805-7.134c1.821,3.573-7.423,9.347-3.257,11.778
			c4.167,2.431,6.901-9.339,14.195-4.214c7.294,5.125,15.195,4.517,12.46,10.899c-2.736,6.382-2.736,4.862-12.156,6.078
			c-9.421,1.216-9.725,8.802-6.686,13.67c3.039,4.868,7.901,2.192,13.98,3.53c6.078,1.338,7.294,5.593,3.951,12.886
			c-3.343,7.293,3.039,13.538,9.725,12.391c6.686-1.147,11.245-4.627,15.803,0c4.559,4.627,13.98,10.098,22.489,1.588
			c8.509-8.509,2.735-17.93,14.891-13.372c12.156,4.559,35.962,13.878,47.713,4.559c11.751-9.32,23.906-17.194,33.227-12.244
			c9.319,4.95,12.561,7.967,24.717,4.23c12.156-3.737,10.26,7.028,20.933,0.43c10.673-6.598,16.345-17.944,17.966-25.237
			C405.052,404.901,415.224,382.615,410.543,372.079z M305.676,270.687c-0.608,4.448-6.975-2.321-11.541,0
			c-3.471,1.764-2.89,6.17,0.788,9.805c-2.168,1.084-5.205,2.39-9.304,3.697c-7.072,2.255-11.323,0.05-13.066-5.457
			c1.899-1.266,3.227-1.24,6.278-2.24c5.065-1.66,5.268-5.509-2.431-10.98c-7.699-5.47-8.104-9.725-3.039-11.346
			c5.065-1.621,9.218-1.869,9.218-1.869C288.354,256.293,306.284,266.238,305.676,270.687z"/>
		<g>
			<g>
				<path style="opacity:0.86;fill:#933642;" d="M260.547,158.893c6.534-3.343,9.269,2.431,11.548,9.877
					c2.279,7.446,8.205,5.166,7.294-4.862c-0.912-10.029,3.343-19.146,9.421-18.082c6.077,1.064,6.837,5.554,6.837,5.556
					c0.004-0.003,14.891-12.698,10.941-16.648c-0.032-0.032-0.068-0.054-0.1-0.084c-3.446,2.492-7.57,5.117-10.537,5.858
					c-6.079,1.52-9.421-5.166-17.931,0.304c-8.509,5.47-0.911,17.322-7.597,14.283c-6.686-3.039-7.959-9.117-13.553-9.725
					c-5.593-0.608-3.253-3.951-3.207-13.068c0.046-9.117-4.209-10.94-13.934-15.803c-9.725-4.863-11.815-7.744-17.912-15.268v0
					c-0.999-0.044-2.117-0.127-3.361-0.231c-7.294-0.608-10.637,5.774-4.255,11.548c6.382,5.774,14.891,8.205,20.057,15.195
					c5.167,6.99,8.205,10.637,3.951,13.068c-4.255,2.431-7.598,2.735-6.686,7.294c0.912,4.558,5.47,7.597,10.637,9.725
					c5.166,2.127,7.597,6.382,2.431,8.813c-5.166,2.431-1.519,8.813-1.519,8.813c5.318-1.367,11.092,11.092,14.435,8.965
					C260.851,182.293,254.013,162.236,260.547,158.893z"/>
				<path style="opacity:0.86;fill:#933642;" d="M334.243,317.985c-10.637-11.852-20.057-17.271-12.156-24.894
					c7.901-7.623,7.294-12.812-0.608-16.6c-7.901-3.787-9.048-12.887-3.343-21.102c5.705-8.215-7.701-6.122-8.306-12.974
					c-0.605-6.852,3.726-9.851-2.189-14.701c-3.654-2.996,1.905-9.82,6.691-14.602c0.985-6.095,3.197-13.722,3.197-17.238
					c-15.803,7.54-24.316,7.841-25.224,11.187c-0.908,3.346,17.018-5.47,17.322,0c0.304,5.47-18.234,15.195-24.312,20.969
					c-6.078,5.774,1.712,8.205,10.429,8.205s8.302,6.078,0,10.94c-8.302,4.863-13.164,5.121-13.164,5.121l0,0l0,0
					c4.997,3.458,19.089,11.37,22.4,16.32c0.157,0.234,0.297,0.463,0.404,0.683c0.082,0.168,0.147,0.332,0.197,0.491
					c0.099,0.318,0.133,0.618,0.096,0.896c-0.038,0.278-0.099,0.512-0.18,0.708c-0.203,0.488-0.534,0.734-0.967,0.814
					c-0.086,0.016-0.177,0.026-0.271,0.029c-1.79,0.064-4.944-2.036-7.88-2.05c-0.772-0.004-1.53,0.137-2.243,0.5
					c-0.258,0.131-0.487,0.281-0.701,0.441c-0.064,0.048-0.121,0.099-0.181,0.149c-0.146,0.121-0.28,0.248-0.403,0.382
					c-0.053,0.058-0.108,0.115-0.157,0.176c-0.132,0.163-0.249,0.334-0.35,0.513c-0.018,0.032-0.042,0.061-0.059,0.094
					c-0.11,0.207-0.195,0.426-0.265,0.651c-0.025,0.08-0.042,0.163-0.062,0.245c-0.038,0.153-0.067,0.309-0.088,0.469
					c-0.013,0.099-0.024,0.197-0.03,0.298c-0.01,0.159-0.007,0.323-0.001,0.487c0.004,0.097,0,0.191,0.009,0.289
					c0.022,0.236,0.063,0.477,0.116,0.72c0.03,0.134,0.072,0.271,0.111,0.407c0.037,0.129,0.076,0.259,0.121,0.389
					c0.053,0.15,0.109,0.301,0.173,0.453c0.047,0.114,0.102,0.228,0.156,0.343c0.269,0.572,0.614,1.148,1.033,1.719
					c0.066,0.09,0.13,0.179,0.2,0.268c0.136,0.175,0.28,0.349,0.429,0.521c0.077,0.088,0.157,0.176,0.237,0.263
					c0.161,0.176,0.322,0.352,0.497,0.525c1.161,1.148,2.622,2.221,4.372,3.107c7.294,3.693,11.852,5.213,11.245,7.948
					c-0.608,2.735-17.93-6.198-21.577-1.276c-3.647,4.923,7.901,14.443,17.322,17.128c9.421,2.686,22.185,13.626,19.146,18.488
					c-3.039,4.862-18.081-3.039-21.197,1.215c-3.115,4.255,4.482,5.47,11.472,14.891c6.99,9.421,5.47,15.195-1.216,14.283
					c-6.685-0.912-12.763-5.748-14.587-2.114c-1.823,3.634,10.637,14.983,5.774,18.577l0,0c11.852-0.356,7.597-9.777,17.018-10.081
					c9.421-0.304,9.421-2.162,5.774-9.894c-3.647-7.732,0.608-11.683,5.774-15.026C339.409,334.396,344.879,329.837,334.243,317.985
					z"/>
			</g>
			<path style="opacity:0.86;fill:#933642;" d="M296.863,160.26c-0.304,9.117,6.99,10.957,8.51,3.807
				C303.629,158.6,300.793,157.327,296.863,160.26z"/>
		</g>
		<g style="opacity:0.69;">
			<path style="fill:#C44F5E;" d="M317.528,195.874c0,0.2-0.009,0.418-0.023,0.644C317.519,196.292,317.528,196.074,317.528,195.874
				z"/>
			<path style="fill:#C44F5E;" d="M288.05,330.445c4.862-6.078,8.813-10.333,4.862-14.891c-3.951-4.559-20.361,6.613-18.538-5.051
				c1.824-11.664,9.421-9.364,3.647-14.009c-5.774-4.645-16.715-6.258-10.636-12.897c5.26-5.746,6.2-5.628,9.64-6.567
				c0.119-0.033,0.247-0.069,0.372-0.105c0.145-0.041,0.29-0.082,0.444-0.127c0.311-0.092,0.636-0.191,0.99-0.307
				c2.216-0.726,3.501-1.872,3.602-3.388c0.071-1.084-0.462-2.356-1.692-3.802c-0.985-1.156-2.416-2.422-4.341-3.79
				c-6.255-4.445-7.696-8.087-5.299-10.165c0.184-0.16,0.392-0.311,0.621-0.452c0.459-0.282,1.006-0.526,1.64-0.729
				c2.533-0.81,4.837-1.278,6.508-1.542c0.209-0.033,0.408-0.063,0.596-0.09c1.319-0.189,2.113-0.237,2.113-0.237
				s4.862-0.258,13.164-5.121c8.302-4.862,8.717-10.94,0-10.94s-16.507-2.431-10.429-8.205c6.078-5.774,24.616-15.499,24.312-20.969
				c-0.304-5.47-18.23,3.346-17.322,0c0.908-3.346,9.421-3.647,25.224-11.187c0,0,17.018-10.086,12.156-15.86
				c-4.862-5.774-13.706,3.343-15.818-1.216c-2.112-4.559,4.27-11.244,5.486-17.322c-10.029,12.46-18.851,12.156-18.239,20.665
				c0.613,8.509-2.73,13.979-7.897,12.156c-5.166-1.823-2.735-23.704-8.509-13.372c-5.774,10.333,0.304,30.491-6.99,31.352
				c-7.293,0.861-7.518-12.603-12.116-2.224c-4.599,10.379,8.547,28.557,4.405,31.624c-4.141,3.067-9.611-18.206-12.65-9.089
				c-3.039,9.117,8.833,31.918,1.681,31.914c-7.152-0.004-10.889,8.44-5.374,15.311c5.516,6.87,2.257,7.651-2.647,16.681
				c-4.905,9.031,5.124,12.07,9.379,16.476c4.254,4.406-4.042,10.484-6.732,14.435c-2.689,3.951,2.477,11.244,13.721,12.764
				c11.244,1.52,10.332,4.309,6.078,13.095c-4.255,8.786-3.647,13.125,5.774,13.387c9.421,0.262,9.117,2.321,13.068,4.786
				c2.074,1.294,3.807,0.046,4.991-1.429c-2.607-3.376-4.868-9.039-5.903-16.744C289.266,337.435,283.188,336.523,288.05,330.445z"
				/>
			<path style="fill:#C44F5E;" d="M317.122,199.445c-0.035,0.201-0.072,0.403-0.11,0.611
				C317.051,199.848,317.087,199.645,317.122,199.445z"/>
			<path style="fill:#C44F5E;" d="M317.489,196.738c-0.013,0.163-0.027,0.332-0.046,0.506
				C317.462,197.07,317.476,196.902,317.489,196.738z"/>
			<path style="fill:#C44F5E;" d="M316.731,201.488c-0.028,0.137-0.057,0.277-0.086,0.417
				C316.673,201.765,316.703,201.625,316.731,201.488z"/>
			<path style="fill:#C44F5E;" d="M317.414,197.509c-0.022,0.183-0.046,0.371-0.074,0.564
				C317.368,197.881,317.392,197.692,317.414,197.509z"/>
			<path style="fill:#C44F5E;" d="M316.931,200.478c-0.034,0.173-0.068,0.348-0.103,0.524
				C316.864,200.826,316.898,200.651,316.931,200.478z"/>
			<path style="fill:#C44F5E;" d="M317.307,198.318c-0.04,0.269-0.084,0.546-0.132,0.831
				C317.223,198.864,317.267,198.587,317.307,198.318z"/>
		</g>
		<g style="opacity:0.35;">
			<path style="fill:#933642;" d="M292.075,276.008c0.037,0.129,0.075,0.259,0.121,0.389
				C292.151,276.267,292.112,276.137,292.075,276.008z"/>
			<path style="fill:#933642;" d="M299.902,354.162c1.824-3.634,7.902,1.203,14.587,2.114c6.686,0.912,8.205-4.862,1.216-14.283
				c-6.99-9.421-14.587-10.637-11.472-14.891c3.116-4.255,18.158,3.647,21.197-1.215c3.039-4.863-9.725-15.803-19.146-18.488
				c-9.421-2.686-20.969-12.206-17.322-17.128c3.647-4.923,20.969,4.011,21.577,1.276c0.607-2.735-3.951-4.255-11.245-7.948
				c-1.75-0.886-3.212-1.959-4.372-3.107c0.001,0.001,0.001,0.001,0.002,0.002c-2.168,1.084-5.205,2.39-9.304,3.697
				c-7.072,2.255-11.323,0.05-13.066-5.457c1.474-0.983,2.614-1.191,4.472-1.701c-3.44,0.94-4.38,0.821-9.64,6.567
				c-6.078,6.639,4.862,8.252,10.636,12.897c5.774,4.645-1.823,2.345-3.647,14.009c-1.823,11.664,14.588,0.492,18.538,5.051
				c3.951,4.559,0,8.813-4.862,14.891c-4.862,6.078,1.216,6.99,3.343,22.82c2.127,15.83,9.421,23.069,14.283,19.475
				C310.539,369.145,298.079,357.796,299.902,354.162z"/>
			<path style="fill:#933642;" d="M291.848,274.881c0.023,0.236,0.063,0.477,0.116,0.72
				C291.911,275.358,291.87,275.117,291.848,274.881z"/>
			<path style="fill:#933642;" d="M292.369,276.85c0.048,0.114,0.102,0.228,0.156,0.343
				C292.471,277.079,292.416,276.964,292.369,276.85z"/>
			<path style="fill:#933642;" d="M293.558,278.912c0.066,0.09,0.13,0.179,0.2,0.268
				C293.689,279.091,293.624,279.002,293.558,278.912z"/>
			<path style="fill:#933642;" d="M291.839,274.591c-0.006-0.164-0.009-0.327,0.001-0.487
				C291.83,274.264,291.832,274.427,291.839,274.591z"/>
			<path style="fill:#933642;" d="M294.135,270.687c-0.259,0.131-0.487,0.281-0.701,0.441
				C293.648,270.968,293.877,270.818,294.135,270.687c0.714-0.363,1.471-0.503,2.243-0.5
				C295.606,270.183,294.849,270.324,294.135,270.687z"/>
			<path style="fill:#933642;" d="M291.957,273.337c-0.038,0.154-0.068,0.309-0.088,0.469
				C291.89,273.647,291.92,273.491,291.957,273.337z"/>
			<path style="fill:#933642;" d="M277.397,276.926c0.147-0.042,0.288-0.081,0.444-0.127
				C277.687,276.844,277.542,276.885,277.397,276.926z"/>
			<path style="fill:#933642;" d="M271.722,254.894c0.459-0.282,1.006-0.526,1.64-0.729c2.533-0.81,4.837-1.278,6.508-1.542
				c-1.671,0.265-3.976,0.732-6.508,1.542C272.728,254.368,272.181,254.612,271.722,254.894z"/>
			<path style="fill:#933642;" d="M304.53,272.208c-0.086,0.016-0.177,0.025-0.271,0.029
				C304.353,272.234,304.443,272.224,304.53,272.208z"/>
			<path style="fill:#933642;" d="M294.424,279.965c-0.08-0.088-0.16-0.175-0.237-0.263
				C294.264,279.79,294.344,279.878,294.424,279.965z"/>
			<path style="fill:#933642;" d="M292.85,271.658c0.122-0.134,0.257-0.261,0.403-0.382
				C293.107,271.397,292.973,271.524,292.85,271.658z"/>
			<path style="fill:#933642;" d="M300.076,263.909C300.076,263.909,300.076,263.909,300.076,263.909
				c1.997,1.543,3.662,3.03,4.644,4.334C303.738,266.939,302.073,265.452,300.076,263.909z"/>
			<path style="fill:#933642;" d="M292.694,271.834c-0.132,0.163-0.249,0.334-0.35,0.513
				C292.445,272.168,292.562,271.997,292.694,271.834z"/>
			<path style="fill:#933642;" d="M292.284,272.441c-0.11,0.208-0.195,0.426-0.265,0.651
				C292.089,272.867,292.175,272.648,292.284,272.441z"/>
			<path style="fill:#933642;" d="M208.732,292.457c0,0-0.213,0.378-0.252,1.058C208.601,293.191,208.695,292.845,208.732,292.457z"
				/>
			<path style="fill:#933642;" d="M235.475,205.172c0,0,2.127-10.874-3.039-11.178c-5.167-0.304-6.078,15.667-9.421,15.735
				c-3.343,0.068,0.912-13.81-3.647-12.493c-1.386,0.4-2.858,1.408-4.336,2.596c-0.655,2.902-1.052,6.252-1.417,9.897
				c-0.953,9.518,12.439,8.881,5.145,11.283c-7.294,2.402-7.294,2.156-7.963,10.362c-0.669,8.205,13.13,20.361,7.659,27.576
				c-5.47,7.214-17.626-1.136-17.017-8.126c0.61-6.99-3.345-8.813-9.119-13.068c-5.774-4.255,5.166-16.107,2.735-19.564
				c-2.431-3.458-11.548,10.447-15.499,4.977c-3.95-5.47,5.166-7.902,5.685-13.44c0.518-5.538-7.394,1.387-8.947-3.91
				c-1.553-5.297,5.39-3.619,10.252-11.824c4.862-8.205-5.469-11.548-14.859-11.219c-4.359,0.122-11.913-2.323-16.139-4.434
				c-6.382-3.189-12.768,1.125-7.144,9.453c5.624,8.328,15.957,11.93,15.957,16.511c0,4.581-3.647,0.19-1.824,6.184
				c1.824,5.994,6.382,2.595,3.647,8.246c-2.735,5.65,3.039,7.17,5.166,12.336c2.127,5.166-4.559,1.216-7.294,3.951
				c-2.735,2.735,4.559,10.029,12.764,12.46c8.205,2.431,11.852,9.421,5.774,12.156c-6.078,2.735-7.902,9.326-0.304,12.109
				c7.598,2.783,14.588,1.567,14.588,5.822c0,4.255-11.548-0.608-12.156,6.686c-0.607,7.294,24.008,8.205,24.008,8.205
				c0.774-8.182,4.052-10.535,8.104-7.394c4.052,3.141,7.293,10.636,14.729,9.015c7.436-1.621,0.06-10.333-5.41-17.37
				c-5.47-7.038,0.81-7.55,7.294-8.028c6.484-0.478,3.85-4.587-2.702-14.552c-6.552-9.965-11.885-15.36-8.643-19.818
				c3.241-4.457,8.914,4.862,16.613,2.836c7.699-2.026,0.203-12.561-5.47-21.452C227.574,206.805,230.207,202.705,235.475,205.172z"
				/>
		</g>
		<path style="opacity:0.69;fill:#933642;" d="M88.691,295.192c5.774,4.862,8.881,1.245,13.861,3.662
			c4.981,2.416,5.922,8.494-0.931,8.19c-6.853-0.304-19.313,0-21.44,3.039c-2.127,3.039-5.47,8.509,5.774,7.294
			c11.244-1.216,23.713-8.813,26.14-4.255c2.427,4.559-16.719,12.156-13.984,17.93c2.735,5.774,13.979-2.145,20.209-6.542
			c6.23-4.398,14.323-3.182,15.747,1.68c1.424,4.862-19.336,9.725-21.112,11.852c-1.776,2.127-1.715,9.596,8.86,7.719
			c10.575-1.877,12.234-6.503,19.792-7.415c7.559-0.912,9.99,2.673,5.128,7.415c-4.862,4.741-1.519,5.045,6.078,2.006
			c7.598-3.039,19.215-2.431,11.127,3.039c-8.088,5.47-16.902,1.823-18.117,7.597c-1.216,5.774,4.896,0.912,13.997,1.52
			c9.1,0.608,12.157,1.969,6.83,8.126c-5.327,6.157-16.268,10.26-16.876,18.237c-0.608,7.977,0,12.062,7.901,6.069
			c7.902-5.993,13.984-10.707,15.805-7.134c1.821,3.573-7.423,9.347-3.257,11.778c4.167,2.431,6.901-9.339,14.195-4.214
			c7.294,5.125,15.195,4.517,12.46,10.899c-2.736,6.382-2.736,4.862-12.156,6.078c-9.421,1.216-9.725,8.802-6.686,13.67
			c3.039,4.868,7.901,2.192,13.98,3.53c6.078,1.338,7.294,5.593,3.951,12.886c-3.343,7.293,3.039,13.538,9.725,12.391
			c6.686-1.147,11.245-4.627,15.803,0c4.559,4.627,13.98,10.098,22.489,1.588c8.509-8.509,2.735-17.93,14.891-13.372
			c12.156,4.559,35.962,13.878,47.713,4.559c11.751-9.32,23.906-17.194,33.227-12.244c9.319,4.95,12.561,7.967,24.717,4.23
			c12.156-3.737,10.26,7.028,20.933,0.43c10.673-6.598,16.345-17.944,17.966-25.237c1.173-5.278,6.82-18.405,8.08-29.25
			c-6.369,4.645-14.063,27.601-18.919,35.328c-6.686,10.637-5.47-9.421-13.979-14.587c-8.51-5.166-8.493,15.958-16.107,20.75
			c-7.614,4.792-2.431-8.897-4.281-17.711c-1.849-8.813-18.208,6.686-22.226,14.068c-4.018,7.382-5.707,0.823-10.113-15.587
			c-4.405-16.411-11.701-9.117-12.309-3.647c-0.608,5.47,0,17.626-2.12,15.195c-2.12-2.431-5.478-16.411-14.291-23.704
			c-8.813-7.293-22.793,5.47-14.587,13.068c8.205,7.598,9.725,30.694-4.254,18.318c-13.979-12.376-10.94-22.269-27.351-21.053
			s-8.205,18.842,0.304,27.552c8.509,8.71-8.509,4.965-28.871,11.651c-20.361,6.686-21.577-13.068-15.353-18.15
			c6.225-5.082,10.49-10.113,0-13.152c-10.49-3.039,0.462-8.205,1.678-18.927c1.216-10.722-10.637-11.463-24.92-16.022
			c-14.284-4.559,2.127-7.902,11.852-13.467c9.725-5.566-4.559-7.502-14.588-4.159c-10.028,3.343,1.824-9.421-7.595-14.283
			c-9.419-4.863-15.805-6.078-13.661-11.244c2.144-5.166-1.233-9.725-10.005-9.421c-8.772,0.304-21.01-4.559-14.324-9.117
			c6.685-4.559-2.127-9.725-9.398-6.268c-7.27,3.457-14.002-1.33-9.881-5.289c4.121-3.959-1.994-11.54-13.661-8.781
			c-11.667,2.759-17.607-5.953-23.806-13.114C74.408,287.291,82.917,290.33,88.691,295.192z"/>
		<g>
			<path style="fill:#230D11;" d="M125.276,94.517c-2.244,3.039,2.416,6.197,3.226,3.2
				C129.313,94.719,125.276,94.517,125.276,94.517z"/>
			<path style="fill:#230D11;" d="M170.643,98.924c-4.659-3.285-7.699,2.886-4.052,4.304
				C170.238,104.647,172.872,100.496,170.643,98.924z"/>
			<path style="fill:#230D11;" d="M200.02,178.34c-3.444,0.458-3.647,8.343,1.013,6.325
				C205.693,182.648,203.464,177.882,200.02,178.34z"/>
			<path style="fill:#230D11;" d="M176.404,188.688c-1.74,1.087,0.738,7.087,3.248,4.43
				C182.163,190.46,179.948,186.474,176.404,188.688z"/>
			<path style="fill:#230D11;" d="M177.891,235.375c-2.365,1.908,2.784,6.158,4.031,3.619
				C183.169,236.456,180.469,233.297,177.891,235.375z"/>
			<path style="fill:#230D11;" d="M247.226,220.737c-2.922,1.53-0.531,6.078,2.47,4.255
				C252.696,223.168,251.481,218.508,247.226,220.737z"/>
			<path style="fill:#230D11;" d="M285.72,240.794c-2.431,3.039,2.371,6.072,3.718,3.441
				C290.785,241.605,288.151,237.755,285.72,240.794z"/>
			<path style="fill:#230D11;" d="M213.616,290.27c-1.845,2.795,0.789,5.477,3.22,4.035
				C219.267,292.863,215.46,287.475,213.616,290.27z"/>
			<path style="fill:#230D11;" d="M270.007,324.671c-4.21-3.565-10.827,2.836-6.167,5.268
				C268.499,332.37,274.553,328.52,270.007,324.671z"/>
			<path style="fill:#230D11;" d="M318.339,333.18c-2.229,3.647,4.457,5.875,5.065,3.444
				C324.012,334.193,320.567,329.533,318.339,333.18z"/>
			<path style="fill:#230D11;" d="M255.938,362.76c-5.148-3.861-10.13,4.638-5.268,6.979
				C255.533,372.079,259.99,365.799,255.938,362.76z"/>
			<path style="fill:#230D11;" d="M209.036,376.486c-5.187,0.327-3.039,5.774,0.608,4.559
				C213.29,379.829,211.379,376.338,209.036,376.486z"/>
			<path style="fill:#230D11;" d="M164.818,376.481c-2.735,0.004-4.116,5.068-0.994,4.74
				C166.946,380.892,167.553,376.477,164.818,376.481z"/>
			<path style="fill:#230D11;" d="M142.887,299.447c-3.545-0.304-3.951,5.832,0,5.347
				C146.837,304.31,146.432,299.751,142.887,299.447z"/>
			<path style="fill:#230D11;" d="M153.928,310.503c-3.663-1.802-6.281,5.658-1.823,6.165S158.487,312.746,153.928,310.503z"/>
			<path style="fill:#230D11;" d="M178.038,319.302c-6.094-0.244-6.99,9.218-1.52,8.205
				C181.989,326.494,183.103,319.504,178.038,319.302z"/>
			<path style="fill:#230D11;" d="M113.611,298.285c-3.694-4.204-7.446,1.831-3.647,3.092
				C113.763,302.638,116.194,301.225,113.611,298.285z"/>
			<path style="fill:#230D11;" d="M331.432,265.714c-3.653-1.335-7.522,3.723-3.343,4.938
				C332.268,271.868,335.383,267.158,331.432,265.714z"/>
			<path style="fill:#230D11;" d="M288.202,153.803c-4.334,1.288-4.255,8.661,0,7.674
				C292.457,160.488,291.013,152.967,288.202,153.803z"/>
			<path style="fill:#230D11;" d="M231.828,90.971c-4.169,2.452-0.304,8.661,2.887,6.078
				C237.906,94.466,234.412,89.452,231.828,90.971z"/>
			<path style="fill:#230D11;" d="M215.62,431.923c-4.878-3.001-10.312,7.622-3.94,7.824
				C218.052,439.951,220.685,435.039,215.62,431.923z"/>
			<path style="fill:#230D11;" d="M387.729,363.874c-4.559,2.431-4.255,7.171,0,5.865
				C391.984,368.433,392.288,361.443,387.729,363.874z"/>
			<path style="fill:#230D11;" d="M361.088,343.108c-3.473-4.007-7.901,1.167-4.66,4.028
				C359.669,349.996,363.721,346.147,361.088,343.108z"/>
		</g>
		<g>
			<path style="fill:#C44F5E;" d="M127.121,101.077c-1.629,0-3.27-1.084-4.083-2.695c-0.837-1.659-0.647-3.581,0.506-5.144
				l0.686-0.93l1.154,0.059c0.523,0.026,3.207,0.254,4.605,2.18c0.532,0.733,1.067,1.974,0.592,3.731
				C130.114,100.005,128.788,101.077,127.121,101.077L127.121,101.077z"/>
			<path style="fill:#230D11;" d="M125.276,94.517c-2.244,3.039,2.416,6.197,3.226,3.2
				C129.313,94.719,125.276,94.517,125.276,94.517z"/>
			<path style="fill:#C44F5E;" d="M168.073,105.671c-0.756,0-1.517-0.147-2.262-0.436c-2.159-0.84-3.325-2.916-2.902-5.167
				c0.462-2.461,2.612-4.246,5.112-4.246c1.298,0,2.597,0.452,3.862,1.343c1.494,1.053,2.088,2.901,1.515,4.71
				c-0.708,2.236-2.898,3.797-5.324,3.797C168.073,105.671,168.073,105.671,168.073,105.671z"/>
			<path style="fill:#230D11;" d="M170.643,98.924c-4.659-3.285-7.699,2.886-4.052,4.304
				C170.238,104.647,172.872,100.496,170.643,98.924z"/>
			<path style="fill:#C44F5E;" d="M199.636,187.148c-2.388,0-4.114-1.822-4.293-4.533c-0.188-2.837,1.404-6.01,4.394-6.407
				c0.252-0.034,0.501-0.049,0.745-0.049c2.535,0,4.742,1.769,5.248,4.208c0.405,1.953-0.358,4.768-3.842,6.276
				C201.112,186.977,200.354,187.148,199.636,187.148C199.637,187.148,199.637,187.148,199.636,187.148z"/>
			<path style="fill:#230D11;" d="M200.02,178.34c-3.444,0.458-3.647,8.343,1.013,6.325
				C205.693,182.648,203.464,177.882,200.02,178.34z"/>
			<path style="fill:#C44F5E;" d="M178.336,195.943c-2.23,0-3.82-2.061-4.405-4.103c-0.621-2.167-0.11-4.075,1.334-4.977
				c1.032-0.645,2.079-0.972,3.112-0.972c1.808,0,3.379,1.038,4.099,2.71c0.839,1.945,0.345,4.298-1.258,5.995
				C180.166,195.71,179.07,195.943,178.336,195.943L178.336,195.943z"/>
			<path style="fill:#230D11;" d="M176.404,188.688c-1.74,1.087,0.738,7.087,3.248,4.43
				C182.163,190.46,179.948,186.474,176.404,188.688z"/>
			<path style="fill:#C44F5E;" d="M180.658,241.934c-2.112,0-4.532-1.806-5.287-3.944c-0.576-1.631-0.14-3.236,1.168-4.29
				c0.934-0.754,1.999-1.151,3.081-1.151c1.587,0,3.07,0.858,3.966,2.296c0.97,1.56,1.071,3.465,0.268,5.099
				C183.242,241.19,182.047,241.934,180.658,241.934L180.658,241.934z"/>
			<path style="fill:#230D11;" d="M177.891,235.375c-2.365,1.908,2.784,6.158,4.031,3.619
				C183.169,236.456,180.469,233.297,177.891,235.375z"/>
			<path style="fill:#C44F5E;" d="M248.301,227.569c-2.078,0-3.894-1.484-4.417-3.608c-0.517-2.101,0.403-4.115,2.343-5.13
				c1.061-0.556,2.086-0.837,3.052-0.837c1.952,0,3.545,1.184,4.059,3.017c0.603,2.156-0.434,4.55-2.525,5.821
				C250.008,227.32,249.163,227.569,248.301,227.569L248.301,227.569z"/>
			<path style="fill:#230D11;" d="M247.226,220.737c-2.922,1.53-0.531,6.078,2.47,4.255
				C252.696,223.168,251.481,218.508,247.226,220.737z"/>
			<path style="fill:#C44F5E;" d="M287.815,247.392c-1.818,0-3.656-1.182-4.469-2.875c-0.801-1.668-0.549-3.515,0.694-5.067
				c1.272-1.59,2.632-1.925,3.548-1.925c1.416,0,2.703,0.779,3.533,2.135c1.017,1.665,1.109,3.846,0.233,5.557
				C290.656,246.579,289.334,247.392,287.815,247.392L287.815,247.392z"/>
			<path style="fill:#230D11;" d="M285.72,240.794c-2.431,3.039,2.371,6.072,3.718,3.441
				C290.785,241.605,288.151,237.755,285.72,240.794z"/>
			<path style="fill:#C44F5E;" d="M215.439,296.861c-1.682,0-3.226-0.928-4.029-2.423c-0.879-1.632-0.726-3.634,0.409-5.353
				c0.748-1.134,1.842-1.759,3.078-1.759c2.304,0,4.137,2.155,4.693,4.181c0.534,1.946-0.101,3.727-1.656,4.649
				C217.158,296.617,216.295,296.861,215.439,296.861L215.439,296.861z"/>
			<path style="fill:#230D11;" d="M213.616,290.27c-1.845,2.795,0.789,5.477,3.22,4.035
				C219.267,292.863,215.46,287.475,213.616,290.27z"/>
			<path style="fill:#C44F5E;" d="M266.949,332.851c-1.426,0-2.846-0.348-4.104-1.004c-2.141-1.117-3.143-3.149-2.615-5.304
				c0.687-2.802,3.801-5.082,6.94-5.082c1.556,0,3.018,0.541,4.228,1.566c2.954,2.501,2.45,5.015,2.096,5.981
				c-0.843,2.298-3.472,3.843-6.543,3.843H266.949z"/>
			<path style="fill:#230D11;" d="M270.007,324.671c-4.21-3.565-10.827,2.836-6.167,5.268
				C268.499,332.37,274.553,328.52,270.007,324.671z"/>
			<path style="fill:#C44F5E;" d="M321.705,339.796c-1.792,0-4.246-0.935-5.398-2.988c-0.823-1.468-0.753-3.199,0.194-4.75
				c1.264-2.066,2.896-2.375,3.757-2.375c1.4,0,2.757,0.749,3.821,2.112c1.266,1.622,1.82,3.723,1.414,5.353
				c-0.409,1.633-1.859,2.649-3.786,2.649C321.707,339.796,321.707,339.796,321.705,339.796z"/>
			<path style="fill:#230D11;" d="M318.339,333.18c-2.229,3.647,4.457,5.875,5.065,3.444
				C324.012,334.193,320.567,329.533,318.339,333.18z"/>
			<path style="fill:#C44F5E;" d="M252.824,372.403c-1.05,0-2.089-0.244-3.087-0.724c-2.473-1.191-3.665-3.744-3.035-6.505
				c0.723-3.168,3.525-5.558,6.519-5.558c1.381,0,2.768,0.492,4.008,1.423c2.139,1.604,2.953,4.148,2.122,6.639
				C258.425,370.459,255.74,372.403,252.824,372.403L252.824,372.403z"/>
			<path style="fill:#230D11;" d="M255.938,362.76c-5.148-3.861-10.13,4.638-5.268,6.979
				C255.533,372.079,259.99,365.799,255.938,362.76z"/>
			<path style="fill:#C44F5E;" d="M208.6,383.374c-2.57-0.001-4.724-2.003-4.801-4.465c-0.066-2.112,1.486-4.343,5.102-4.571
				c0.094-0.006,0.187-0.008,0.281-0.008c2.226,0,4.246,1.7,4.599,3.869c0.265,1.635-0.48,3.896-3.455,4.889
				C209.753,383.277,209.172,383.374,208.6,383.374C208.6,383.374,208.6,383.374,208.6,383.374z"/>
			<path style="fill:#230D11;" d="M209.036,376.486c-5.187,0.327-3.039,5.774,0.608,4.559
				C213.29,379.829,211.379,376.338,209.036,376.486z"/>
			<path style="fill:#C44F5E;" d="M163.544,383.39c-2.153,0-3.657-1.528-3.659-3.716c-0.001-2.525,2.022-5.341,4.931-5.345
				c2.179,0,3.775,1.52,3.889,3.696c0.125,2.369-1.582,5.014-4.654,5.337C163.873,383.38,163.704,383.39,163.544,383.39z"/>
			<path style="fill:#230D11;" d="M164.818,376.481c-2.735,0.004-4.116,5.068-0.994,4.74
				C166.946,380.892,167.553,376.477,164.818,376.481z"/>
			<path style="fill:#C44F5E;" d="M142.454,306.974c-1.391,0-2.616-0.551-3.451-1.549c-0.699-0.836-1.084-1.944-1.083-3.124
				c0.002-2.467,1.766-5.017,4.714-5.017C149.395,297.738,150.117,306.974,142.454,306.974z"/>
			<path style="fill:#230D11;" d="M142.887,299.447c-3.545-0.304-3.98,5.322,0,5.347
				C147.268,304.822,146.432,299.751,142.887,299.447z"/>
			<path style="fill:#C44F5E;" d="M152.797,318.861c-0.302,0-0.614-0.017-0.934-0.054c-2.697-0.307-4.404-2.365-4.249-5.123
				c0.154-2.7,2.177-5.614,5.179-5.614c0.707,0,1.409,0.168,2.085,0.5c3.409,1.678,4.143,4.338,3.693,6.269
				C158.012,317.245,155.692,318.861,152.797,318.861L152.797,318.861z"/>
			<path style="fill:#230D11;" d="M153.928,310.503c-3.663-1.802-6.281,5.658-1.823,6.165S158.487,312.746,153.928,310.503z"/>
			<path style="fill:#C44F5E;" d="M175.733,329.736c-2.939,0-4.991-2.204-4.991-5.358c-0.001-1.729,0.64-3.48,1.759-4.803
				c1.323-1.567,3.208-2.429,5.307-2.429C186.851,317.985,186.015,329.115,175.733,329.736z"/>
			<path style="fill:#230D11;" d="M178.038,319.302c-6.094-0.244-6.99,9.218-1.52,8.205
				C181.989,326.494,183.103,319.504,178.038,319.302z"/>
			<path style="fill:#C44F5E;" d="M112.493,303.991c-0.985,0-2.064-0.192-3.208-0.573c-2.138-0.709-3.345-2.611-3.002-4.731
				c0.371-2.293,2.369-4.024,4.649-4.024c1.078,0,2.699,0.382,4.297,2.2c1.936,2.205,1.781,3.91,1.309,4.952
				C115.912,303.199,114.438,303.991,112.493,303.991L112.493,303.991z"/>
			<path style="fill:#230D11;" d="M113.611,298.285c-3.694-4.204-7.446,1.831-3.647,3.092
				C113.763,302.638,116.194,301.225,113.611,298.285z"/>
			<path style="fill:#C44F5E;" d="M329.448,273.004c-0.653,0-1.313-0.096-1.96-0.284c-2.816-0.82-3.55-2.976-3.322-4.571
				c0.371-2.608,3.124-4.811,6.01-4.811c0.682,0,1.354,0.119,1.995,0.353c2.3,0.842,3.543,2.757,3.167,4.88
				c-0.447,2.527-2.98,4.432-5.889,4.432C329.448,273.004,329.448,273.004,329.448,273.004z"/>
			<path style="fill:#230D11;" d="M331.432,265.714c-3.653-1.335-7.522,3.723-3.343,4.938
				C332.268,271.868,335.383,267.158,331.432,265.714z"/>
			<path style="fill:#C44F5E;" d="M287.454,163.719c-2.353,0-4.183-1.717-4.555-4.273c-0.432-2.975,1.204-6.671,4.691-7.707
				c0.343-0.102,0.694-0.154,1.043-0.154c2.221,0,4.009,2.06,4.346,5.01c0.398,3.485-1.325,6.29-4.29,6.977
				c-0.418,0.097-0.833,0.146-1.234,0.146C287.454,163.719,287.454,163.719,287.454,163.719z"/>
			<path style="fill:#230D11;" d="M288.202,153.803c-4.334,1.288-4.255,8.661,0,7.674
				C292.457,160.488,291.013,152.967,288.202,153.803z"/>
			<path style="fill:#C44F5E;" d="M233.104,99.819c-2.282-0.001-4.352-1.753-5.035-4.261c-0.705-2.591,0.317-5.059,2.669-6.442
				c0.652-0.384,1.361-0.578,2.106-0.578c2.096,0,4.131,1.613,4.949,3.924c0.826,2.333,0.166,4.732-1.723,6.261
				C235.184,99.439,234.158,99.819,233.104,99.819L233.104,99.819z"/>
			<path style="fill:#230D11;" d="M231.828,90.971c-4.169,2.452-0.304,8.661,2.887,6.078
				C237.906,94.466,234.412,89.452,231.828,90.971z"/>
			<path style="fill:#C44F5E;" d="M211.612,441.9c-3.024-0.097-5.025-2.076-4.98-4.924c0.056-3.505,3.269-7.738,7.176-7.738
				c1.031,0,2.02,0.287,2.94,0.853c2.919,1.795,4.224,4.408,3.494,6.992c-0.829,2.93-4.04,4.824-8.181,4.824
				C212.06,441.907,211.762,441.905,211.612,441.9z"/>
			<path style="fill:#230D11;" d="M215.62,431.923c-4.878-3.001-10.312,7.622-3.94,7.824
				C218.052,439.951,220.685,435.039,215.62,431.923z"/>
			<path style="fill:#C44F5E;" d="M386.395,372.116c-1.983-0.001-3.553-1.152-3.997-2.933c-0.637-2.548,1.139-5.512,4.319-7.208
				c0.949-0.507,1.858-0.763,2.704-0.763c1.92,0,3.413,1.34,3.711,3.333c0.399,2.66-1.311,6.19-4.77,7.253
				C387.673,372.009,387.012,372.116,386.395,372.116L386.395,372.116z"/>
			<path style="fill:#230D11;" d="M387.729,363.874c-4.559,2.431-4.255,7.171,0,5.865
				C391.984,368.433,392.288,361.443,387.729,363.874z"/>
			<path style="fill:#C44F5E;" d="M358.869,350.293c-1.384,0-2.721-0.534-3.866-1.543c-1.717-1.517-2.299-3.745-1.516-5.816
				c0.78-2.06,2.725-3.444,4.841-3.444c1.128,0,2.804,0.383,4.386,2.208c1.419,1.637,1.765,3.713,0.926,5.55
				c-0.845,1.85-2.717,3.045-4.771,3.045C358.87,350.293,358.87,350.293,358.869,350.293z"/>
			<path style="fill:#230D11;" d="M361.088,343.108c-3.473-4.007-7.901,1.167-4.66,4.028
				C359.669,349.996,363.721,346.147,361.088,343.108z"/>
		</g>
		<g style="opacity:0.51;">
			<path style="fill:#933642;" d="M172.466,115.992c4.66,2.229,10.995-9.067,13.372-7.699c2.376,1.368-4.862,18.031,0,20.26
				c3.491,1.6,9.316-3.902,14.448-5.858c-0.11-0.137-0.232-0.278-0.368-0.423c-4.559-4.862-12.764,3.647-12.46-4.559
				c0.304-8.205,2.735-14.587-1.824-11.852c-4.559,2.735-10.637,9.421-9.421,0.304c1.208-9.057,1.51-15.108-3.552-14.889
				c0.658,0.487,1.002,1.48,0.95,3.24C173.398,101.875,167.807,113.764,172.466,115.992z"/>
			<path style="fill:#933642;" d="M145.824,58.15c-3.342,1.519-3.647-3.343-7.901-14.587c-4.255-11.244-8.813-16.107-10.636-11.852
				c-1.283,2.993,1.942,6.887,2.065,9.569c1.824,1.013,3.025,3.599,3.81,9.272c1.824,13.169,2.229,20.665,7.496,16.613
				c5.268-4.052,7.496-9.287,7.699-4.947c0.203,4.34-8.104,13.862-2.431,16.698c5.673,2.836,13.371-7.091,15.398-4.255
				c2.026,2.836-10.333,20.596-2.229,19.516c3.393-0.452,6.525-1.754,9.006-2.577c-4.592,0.199-8.808-0.597-4.043-8.017
				c6.382-9.935,7.901-13.658,1.823-13.62c-6.078,0.038-16.721,9.459-14.438,1.102c2.283-8.357,4.684-26.287-0.315-24.768
				C146.129,47.817,149.167,56.63,145.824,58.15z"/>
		</g>
		<g style="opacity:0.51;">
			<path style="fill:#933642;" d="M190.617,322.695c-3.116-2.066-4.428-4.449-0.726-7.446c3.21-2.599,5.188-6.042,5.164-8.592
				l-1.851-3.039c-1.083-0.508-2.666-0.64-4.833-0.221c-1.245,0.241-2.421,0.655-3.535,1.175c-0.475,2.329-1.436,6.523-0.777,12.136
				C184.674,321.947,187.455,323.158,190.617,322.695z"/>
			<path style="fill:#933642;" d="M170.014,311.508c-2.278-4.999,9.143-14.734,5.593-18.512c-3.647-3.881-10.941-6.148-14.588,0
				c-1.717,2.895-4.986,4.588-7.472,4.341c-0.16,5.157,0.485,8.606,5.144,5.097c8.406-6.33,13.457-10.069,10.02-1.058
				C166.363,307.534,166.127,312.11,170.014,311.508z"/>
			<path style="fill:#933642;" d="M145.867,285.063c-2.037-7.38,4.867-8.667,7.273-3.251c1.343-9.348-2.669-17.309-8.714-17.309
				c-7.374,0-4.905,13.368-3.577,21.877c1.328,8.509-5.532,8.813-10.307-3.647c-4.775-12.46-10.853-12.049-12.221-6.024
				c-1.367,6.024-7.36,2.604-10.057-10.904c-2.698-13.508-16.838-26.226-21.7-19.236c-2.104,3.025-0.506,7.058,2.154,11.13
				c6.117,2.53,10.131-0.734,13.835,7.793c4.981,11.467,5.151,23.748,11.447,22.622c6.297-1.126,8.47-12.719,12.094-6.922
				c3.624,5.796-0.844,15.931,7.975,17.094C142.886,299.447,148.173,293.419,145.867,285.063z"/>
		</g>
	</g>
	<g>
		<g>
			<path style="opacity:0.6;fill:#C6E0FF;" d="M426.506,282.855c-3.334,7.104-10.55,12.685-18.338,12.685
				c-1.748,0-3.432-0.188-5.052-0.513c1.388,6.057,6.799,10.58,13.277,10.58c7.529,0,13.633-6.103,13.633-13.633
				C430.027,288.463,428.687,285.272,426.506,282.855z"/>
			<path style="fill:none;stroke:#C6E0FF;stroke-miterlimit:10;" d="M405.497,300.168c-1.717-2.281-2.735-5.118-2.735-8.193
				c0-7.529,6.104-13.633,13.633-13.633c7.529,0,13.633,6.104,13.633,13.633c0,4.706-2.384,8.854-6.01,11.304"/>
		</g>
		<g>
			<path style="opacity:0.6;fill:#C6E0FF;" d="M444.048,178.462c-3.334,7.104-10.551,12.685-18.338,12.685
				c-1.748,0-3.432-0.188-5.052-0.513c1.388,6.057,6.799,10.58,13.277,10.58c7.529,0,13.633-6.104,13.633-13.633
				C447.569,184.07,446.229,180.878,444.048,178.462z"/>
			<path style="fill:none;stroke:#C6E0FF;stroke-miterlimit:10;" d="M423.039,195.774c-1.717-2.281-2.735-5.118-2.735-8.193
				c0-7.529,6.104-13.633,13.633-13.633c7.529,0,13.633,6.104,13.633,13.633c0,4.706-2.384,8.854-6.01,11.304"/>
		</g>
		<g>
			<path style="opacity:0.6;fill:#C6E0FF;" d="M346.884,100.513c0.023,0.185,0.062,0.363,0.082,0.55
				c1.151,11.076-8.924,22.748-20.187,22.748c-0.319,0-0.628-0.028-0.944-0.039c2.363,7.228,9.152,12.454,17.169,12.454
				c9.98,0,18.071-8.09,18.071-18.07C361.075,109.509,354.998,102.29,346.884,100.513z"/>
			<path style="fill:none;stroke:#C6E0FF;stroke-miterlimit:10;" d="M354.728,131.907c-3.156,2.693-7.25,4.319-11.724,4.319
				c-9.98,0-18.07-8.09-18.07-18.07s8.09-18.071,18.07-18.071c6.238,0,11.737,3.16,14.984,7.967"/>
		</g>
		<path style="fill:none;stroke:#C6E0FF;stroke-miterlimit:10;" d="M374.71,103.768c0,3.372-2.734,6.106-6.106,6.106
			s-6.106-2.734-6.106-6.106s2.734-6.106,6.106-6.106S374.71,100.396,374.71,103.768z"/>
		<path style="fill:none;stroke:#C6E0FF;stroke-miterlimit:10;" d="M339.938,210.877c0,3.372-2.734,6.106-6.106,6.106
			c-3.372,0-6.106-2.734-6.106-6.106s2.734-6.106,6.106-6.106C337.205,204.771,339.938,207.505,339.938,210.877z"/>
		<path style="fill:none;stroke:#C6E0FF;stroke-miterlimit:10;" d="M388.375,339.796c0,3.372-2.734,6.106-6.106,6.106
			c-3.372,0-6.106-2.734-6.106-6.106c0-3.372,2.734-6.106,6.106-6.106C385.641,333.69,388.375,336.424,388.375,339.796z"/>
		<path style="fill:none;stroke:#C6E0FF;stroke-miterlimit:10;" d="M63.97,380.005c0,3.372-2.734,6.106-6.106,6.106
			c-3.372,0-6.106-2.734-6.106-6.106s2.734-6.106,6.106-6.106C61.237,373.9,63.97,376.633,63.97,380.005z"/>
		<path style="fill:none;stroke:#C6E0FF;stroke-miterlimit:10;" d="M212.737,82.012c0,3.372-2.734,6.106-6.106,6.106
			s-6.106-2.734-6.106-6.106s2.734-6.106,6.106-6.106S212.737,78.64,212.737,82.012z"/>
		<path style="fill:none;stroke:#C6E0FF;stroke-miterlimit:10;" d="M340.673,99.332c0,3.372-2.734,6.106-6.106,6.106
			c-3.372,0-6.106-2.734-6.106-6.106s2.734-6.106,6.106-6.106C337.94,93.226,340.673,95.96,340.673,99.332z"/>
		<circle style="fill:none;stroke:#C6E0FF;stroke-miterlimit:10;" cx="409.515" cy="125.436" r="9.035"/>
		<circle style="fill:none;stroke:#C6E0FF;stroke-miterlimit:10;" cx="256.31" cy="204.274" r="9.035"/>
		<g>
			<path style="opacity:0.6;fill:#C6E0FF;" d="M92.643,343.949c0.295,10.678-9.433,21.475-20.265,21.475
				c-3.133,0-6.081-0.552-8.761-1.567c2.645,6.696,9.161,11.441,16.798,11.441c9.98,0,18.071-8.09,18.071-18.07
				C98.486,351.97,96.227,347.251,92.643,343.949z"/>
			<path style="fill:none;stroke:#C6E0FF;stroke-miterlimit:10;" d="M80.415,375.298c-9.98,0-18.07-8.09-18.07-18.07
				s8.09-18.071,18.07-18.071s18.071,8.09,18.071,18.071"/>
		</g>
		<g>
			<path style="opacity:0.6;fill:#C6E0FF;" d="M82.269,125.168c-1.845,0-3.618-0.209-5.32-0.571c1.091,4.267,4.95,7.427,9.558,7.427
				c5.454,0,9.876-4.422,9.876-9.876c0-1.057-0.17-2.073-0.477-3.028C92.224,122.769,87.37,125.168,82.269,125.168z"/>
			<path style="fill:none;stroke:#C6E0FF;stroke-miterlimit:10;" d="M86.506,132.024c-5.454,0-9.876-4.422-9.876-9.876
				s4.422-9.876,9.876-9.876c5.454,0,9.876,4.422,9.876,9.876"/>
		</g>
		<circle style="fill:none;stroke:#C6E0FF;stroke-miterlimit:10;" cx="234.759" cy="262.464" r="3.859"/>
	</g>
	<g>
		<path style="fill:#E17F1D;" d="M392.106,434.278c7.475-9.32,12.175-17.952,10.826-28.831c-1.349-10.879,1.815-19.035-0.92-24.226
			c-2.735-5.191-11.026-2.152-13.263,6.661c-2.236,8.813-0.643,10.94-4.327,17.018c-3.684,6.078-7.938,12.702-8.546,18.811
			c-0.608,6.109-3.343-5.743-6.382-14.86c-3.039-9.117-3.207-16.411-3.275-24.312s3.711-14.406-2.129-14.801
			c-5.84-0.395-6.577,8.419-8.792,18.143c-2.215,9.725-5.538,11.573-7.523,19.918c-1.985,8.345-5.6,24.501-7.44,21.437
			c-1.839-3.064-0.624-19.498-1.232-27.235c-0.608-7.738-4.559-11.639-4.559-20.781c0-9.142,6.913-23.99-3.989-19.453
			c-10.902,4.537-11.678,18.23-12.672,26.114c-0.995,7.884,3.396,20.057,0,22.185c-3.396,2.127-6.132-5.166-10.386-15.955
			c-4.255-10.789-6.797-12.44-11.756-15.261c-4.959-2.821-10.429-1.809-10.429,4.523s1.118,12.714,2.534,20.919
			c1.417,8.205,1.493,6.99,5.709,15.803c4.217,8.813,7.982,14.891,0.629,16.715c-7.353,1.823-3.706-15.499-7.657-23.096
			c-3.951-7.598-7.216-7.677-16.524-14.779c-9.308-7.102-14.775-7.099-16.343-2.847c-2.689,7.294-1.402,17.565,6.008,27.624
			c7.409,10.059,9.614,18.387,10.335,20.757c0.721,2.37,112.262,10.575,112.262,10.575L392.106,434.278z"/>
		<path style="opacity:0.61;fill:#E17F1D;" d="M402.932,405.447c-0.403-3.251-0.4-6.253-0.275-9.012
			c-0.996,0.959-2.156,1.805-3.543,2.388c-6.747,2.836-2.167,7.294-5.927,15.195c-3.759,7.901-8.396,5.875-9.815-2.229
			c-0.213-1.219-0.497-2.499-0.824-3.8c-3.129,5.19-6.165,10.635-6.672,15.723c-0.608,6.109-3.342-5.743-6.382-14.861
			c-1.237-3.71-1.993-7.115-2.465-10.385c-0.603,1.851-1.061,3.895-1.283,6.029c-0.929,8.946-5.268,16.005-8.307,7.699
			c-3.039-8.307-1.823-12.764-2.141-21.07c-0.032-0.836-0.087-1.69-0.171-2.549c-2.211,9.108-5.416,11.089-7.352,19.225
			c-1.986,8.345-5.6,24.501-7.44,21.437c-1.839-3.064-0.624-19.497-1.232-27.235c-0.608-7.738-4.559-11.639-4.559-20.781
			c0-1.949,0.315-4.159,0.704-6.384c-9.359,2.055-1.212,6.961-6.579,13.046c-5.876,6.661-1.216,11.751-0.901,20.103
			c0.315,8.352-4.366,8.464-13.281,6.843c-8.914-1.621-4.254-3.242-9.522-10.738c-5.267-7.496-7.8-11.042-13.372-13.388
			c-1.756-0.74-3.927-1.616-6.077-2.468c0.384,4.829,1.273,9.936,2.331,16.059c1.416,8.205,1.493,6.99,5.709,15.803
			c4.216,8.813,7.982,14.891,0.629,16.715c-7.353,1.823-3.706-15.499-7.657-23.096c-3.306-6.357-6.146-7.464-12.432-11.811
			c0.811,3.605,1.093,8.063-2.482,8.063c-5.999,0-8.587-3.646-18.989-9.735c-0.998,6.787,0.947,15.203,7.044,23.481
			c7.409,10.059,9.614,18.387,10.335,20.757c0.721,2.37,112.263,10.575,112.263,10.575l9.837-20.767
			C399.582,424.958,404.281,416.326,402.932,405.447z"/>
	</g>
	<g>
		<path style="fill:#E5952A;" d="M262.244,437.722c-3.368,2.735-7.62,12.322,4.686,14.518c12.307,2.196,17.058,4.931,28.814,7.363
			c11.756,2.431,11.148-1.721,19.657-1.316c8.509,0.404,10.94,8.002,20.361,5.267s21.321-4.456,32.086-5.267
			c10.764-0.811,12.284,0.404,28.391,1.924c16.107,1.52,25.298-4.255,29.06-11.244c3.762-6.99,12.575-21.273,16.525-28.871
			c3.951-7.598,8.509-19.754,2.735-19.45c-5.774,0.304-11.548,5.47-15.803,12.156c-4.255,6.686-5.564,3.647-10.683,8.813
			c-5.12,5.166-3.045-6.99,3.971-16.715c7.016-9.725,6.963-22.489,0-21.577s-19.893,22.475-28.236,38.292
			c-8.343,15.817-9.725,11.852-12.46-3.039c-2.735-14.891-7.901-23.096-11.852-17.93c-3.951,5.166,0.608,15.667-6.99,23.789
			c-7.598,8.121-10.272,5.994-10.606-3.731c-0.334-9.725,1.317-31.72-9.299-30.998c-6.704,0.456-9.345,7.598-12.042,21.881
			c-2.697,14.283-1.441,27.655-7.083,17.93s-6.25-12.825-10.505-5.805c-4.255,7.02-1.823-5.136-10.333-15.164
			c-8.509-10.029-25.832-23.4-26.439-12.764c-0.608,10.637,6.818,14.866,8.509,23.4c1.691,8.534,2.735,12.46-3.647,10.029
			c-6.382-2.431-11.244-18.842-20.057-19.146c-8.813-0.304-13.979,0.912-10.029,7.598
			C254.925,424.35,265.612,434.987,262.244,437.722z"/>
		<g>
			<path style="fill:none;stroke:#F3D077;stroke-width:0.5;stroke-linecap:round;stroke-linejoin:round;stroke-miterlimit:10;" d="
				M259,412.958c8.03,13.571,6.561,17.071,15.374,26.796c8.813,9.725,14.479,13.458,15.753,11.34
				c1.273-2.118-3.9-11.898-9.067-15.522"/>
			<path style="fill:none;stroke:#F3D077;stroke-width:0.5;stroke-linecap:round;stroke-linejoin:round;stroke-miterlimit:10;" d="
				M286.531,398.823c4.255,4.255,17.915,21.547,20.665,32.567c2.75,11.02,7.704,26.694,10.69,17.577
				c2.986-9.117-0.554-16.409,0-23.704"/>
			<path style="fill:none;stroke:#F3D077;stroke-width:0.5;stroke-linecap:round;stroke-linejoin:round;stroke-miterlimit:10;" d="
				M343.811,394.112c9.172,16.765,6.158,28.977,1.182,41.46c-4.976,12.483-8.015,11.875-8.927,18.257
				c-0.912,6.382,1.823-1.823,8.509-4.862c6.686-3.039,2.91,1.823,3.886,5.47c0.976,3.647,3.858-2.324,10.156-9.725
				c16.551-19.45,10.777-41.331,14.728-40.723c3.951,0.608,8.003,14.587,8.003,14.587"/>
			<path style="fill:none;stroke:#F3D077;stroke-width:0.5;stroke-linecap:round;stroke-linejoin:round;stroke-miterlimit:10;" d="
				M422.044,390.719c-0.211,10.029-11.479,18.437-11.5,28.161c-0.021,9.725-3.06,19.45-11.266,25.528
				c-8.205,6.078-1.52,4.559,4.862,0c6.382-4.559,12.764-11.739,11.244-4.654c-1.52,7.085,9.421,1.248,11.244-9.205
				c1.823-10.453,9.725-24.432,17.018-27.168"/>
		</g>
		<g style="opacity:0.42;">
			<path style="fill:#E5952A;" d="M380.638,415.108c-2.853-12.656-7.511-19.211-11.143-14.462
				c-3.951,5.166,0.608,15.667-6.99,23.789c-7.597,8.121-10.272,5.994-10.607-3.731c-0.334-9.725,1.318-31.72-9.299-30.998
				c-6.704,0.456-9.345,7.597-12.042,21.881c-2.697,14.283-1.441,27.655-7.083,17.93c-5.642-9.725-6.25-12.825-10.505-5.805
				c-4.255,7.02-1.824-5.136-10.333-15.164c-6.574-7.749-18.404-17.482-23.726-16.607c6.692,6.549,13.873,12.529,20.537,23.658
				c7.545,12.601,12.61,35.701,16.257,36.104c3.647,0.404,4.605-8.41,3.393-17.425c-1.212-9.015,0.457-2.431,5.724,2.431
				c5.267,4.862,13.82-1.664,12.887-18.559c-0.933-16.896,0.282-29.659,4.537-25.81c4.254,3.849,11.345,19.046,7.091,32.923
				c-4.254,13.877,3.242,17.524,12.359,8.204c9.117-9.32,8.633-28.377,11.65-29.478
				C375.058,403.364,378.145,409.291,380.638,415.108z"/>
			<path style="fill:#E5952A;" d="M444.559,400.646c-5.774,0.304-11.548,5.47-15.803,12.156c-0.121,0.19-0.232,0.346-0.348,0.521
				c2.699,0.303,5.15,1.539,8.857-0.521c3.81-2.117,7.066-7.121,9.307-11.42C446.134,400.867,445.478,400.598,444.559,400.646z"/>
			<path style="fill:#E5952A;" d="M281.06,429.213c-6.382-2.431-11.244-18.842-20.057-19.146
				c-6.243-0.215-10.638,0.343-11.275,3.058c5.542,0.421,7.752-2.189,9.944,0.487c2.572,3.14,6.802,18.651,14.703,26.141
				c7.902,7.49,14.182,11.137,12.156,5.667c-2.026-5.47-0.608-10.031,1.418-14.031c1.311-2.588-0.267-5.54-2.584-8.864
				C286.541,428.694,286.536,431.299,281.06,429.213z"/>
			<path style="fill:#E5952A;" d="M412.737,428.111C412.263,429.458,412.511,429.562,412.737,428.111L412.737,428.111z"/>
			<path style="fill:#E5952A;" d="M422.044,383.324c-6.913,0.905-19.704,22.161-28.053,37.945c3.088-2.449,6.474-5.64,9.44-9.074
				c7.699-8.915,13.553-23.432,18.613-21.476c5.06,1.957-9.542,21.678-9.113,32.213c0.102,2.51-0.04,4.197-0.193,5.179
				c0.381-1.079,1.227-2.949,2.922-5.448c-1.486-1.352,0.982-10.274,6.384-17.762C429.06,395.176,429.007,382.412,422.044,383.324z"
				/>
		</g>
		<path style="opacity:0.41;fill:#E5952A;" d="M408.395,451.703c-5.926,7.143-16.081,8.115-18.994,3.341
			c-2.913-4.774,9.725-21.273,6.99-23.834c-2.735-2.561-6.078,14.413-11.7,13.045c-5.622-1.367-5.774-12.916-8.813-3.191
			c-3.039,9.725-14.131,14.587-23.4,16.411c-9.269,1.824-4.016-3.039-5.926-6.838c-1.911-3.799-7.294,9.421-12.156,11.7
			s-3.647-10.333-5.318-16.259c-1.672-5.926-6.99,0.608-6.382,7.142c0.608,6.534-0.759,7.142-8.661,1.824
			c-7.902-5.318-8.661-20.361-12.004-23.249c-3.343-2.887-4.103,5.318-2.583,15.499c1.274,8.536,3.93,11.303-6.441,11.705
			c0.876,0.202,1.777,0.404,2.739,0.603c11.756,2.431,11.148-1.72,19.657-1.316c8.509,0.404,10.94,8.002,20.361,5.267
			c9.421-2.735,21.321-4.456,32.086-5.267c10.765-0.811,12.284,0.404,28.391,1.924c7.566,0.714,13.588-0.195,18.256-2.07
			C414.125,453.571,412.599,446.636,408.395,451.703z"/>
	</g>
</g>
</svg>
